<?xml version="1.0" standalone="no"?>
<svg
  width="600"
  height="600"
  viewBox="0 0 600 600"
  xmlns="http://www.w3.org/2000/svg"
>
  <g transform="translate(300,300)">
    <path d="M125.9,-163.1C149.5,-156.1,145.6,-101.1,159.7,-53C173.7,-4.9,205.7,36.2,207,78.1C208.3,120,178.8,162.7,139.2,169.4C99.5,176,49.8,146.5,6.6,137.5C-36.6,128.4,-73.3,139.9,-95.2,127.5C-117,115.1,-124.1,78.9,-145.8,40.7C-167.4,2.5,-203.5,-37.7,-207.1,-79.9C-210.7,-122,-181.8,-166.2,-141.8,-167.9C-101.9,-169.6,-50.9,-128.8,0.1,-128.9C51.1,-129.1,102.3,-170.1,125.9,-163.1Z" fill="#e45454" />
  </g>
</svg>
    